<svg xmlns="http://www.w3.org/2000/svg" height="20" viewBox="0 -960 960 960" width="20"><path d="M456.116-350.732h48.345v-167.154l68.924 69.116 34.037-34.038-127.037-126.845-127.23 126.845L387-448.77l69.116-69.116v167.154Zm23.976 226.654q-73.152 0-138.066-27.825-64.914-27.824-113.652-76.595-48.738-48.77-76.517-113.555-27.779-64.785-27.779-137.855 0-74.152 27.825-138.566 27.824-64.414 76.595-113.152 48.77-48.738 113.555-76.517 64.785-27.779 137.855-27.779 74.152 0 138.566 27.825 64.414 27.824 113.152 76.595 48.738 48.77 76.517 113.055 27.779 64.285 27.779 138.355 0 73.152-27.825 138.066-27.824 64.914-76.595 113.652-48.77 48.738-113.055 76.517-64.285 27.779-138.355 27.779Zm-.105-47.96q127.898 0 217.936-90.026 90.039-90.026 90.039-217.923 0-127.898-90.026-217.936-90.026-90.039-217.923-90.039-127.898 0-217.936 90.026-90.039 90.026-90.039 217.923 0 127.898 90.026 217.936 90.026 90.039 217.923 90.039ZM480-480Z"/></svg>